<?xml version="1.0" encoding="UTF-8" standalone="no"?>
<svg
   xmlns:dc="http://purl.org/dc/elements/1.1/"
   xmlns:cc="http://creativecommons.org/ns#"
   xmlns:rdf="http://www.w3.org/1999/02/22-rdf-syntax-ns#"
   xmlns:svg="http://www.w3.org/2000/svg"
   xmlns="http://www.w3.org/2000/svg"
   xmlns:sodipodi="http://sodipodi.sourceforge.net/DTD/sodipodi-0.dtd"
   xmlns:inkscape="http://www.inkscape.org/namespaces/inkscape"
   width="45.993057mm"
   height="37.032364mm"
   viewBox="0 0 45.993057 37.032364"
   version="1.1"
   id="svg8"
   inkscape:version="1.0.2 (e86c870879, 2021-01-15)"
   sodipodi:docname="video.svg"
   inkscape:export-filename="video.png"
   inkscape:export-xdpi="276.12863"
   inkscape:export-ydpi="276.12863">
  <defs
     id="defs2" />
  <sodipodi:namedview
     id="base"
     pagecolor="#ffffff"
     bordercolor="#666666"
     borderopacity="1.0"
     inkscape:pageopacity="0.0"
     inkscape:pageshadow="2"
     inkscape:zoom="1.4506878"
     inkscape:cx="120.19622"
     inkscape:cy="54.542999"
     inkscape:document-units="mm"
     inkscape:current-layer="layer1"
     inkscape:document-rotation="0"
     showgrid="false"
     inkscape:window-width="1366"
     inkscape:window-height="713"
     inkscape:window-x="0"
     inkscape:window-y="27"
     inkscape:window-maximized="1"
     inkscape:showpageshadow="false" />
  <metadata
     id="metadata5">
    <rdf:RDF>
      <cc:Work
         rdf:about="">
        <dc:format>image/svg+xml</dc:format>
        <dc:type
           rdf:resource="http://purl.org/dc/dcmitype/StillImage" />
        <dc:title></dc:title>
      </cc:Work>
    </rdf:RDF>
  </metadata>
  <g
     inkscape:label="Layer 1"
     inkscape:groupmode="layer"
     id="layer1"
     transform="translate(-82.67919,-126.51682)">
    <path
       id="rect847"
       style="fill:#000000;stroke:none;stroke-width:7.55906;stroke-miterlimit:4;stroke-dasharray:none;stop-color:#000000"
       d="m 331.38672,478.17383 c -10.46929,0 -18.89844,8.42719 -18.89844,18.89648 v 102.16992 c 0,10.4693 8.42915,18.89844 18.89844,18.89844 h 136.03516 c 10.46912,0 18.89843,-8.42914 18.89843,-18.89844 V 497.07031 c 0,-10.46929 -8.42931,-18.89648 -18.89843,-18.89648 z m 0.76172,5.09765 h 12.13086 v 12.13086 h -12.13086 z m 20,0 h 12.13086 v 12.13086 h -12.13086 z m 20,0 h 12.13086 v 12.13086 h -12.13086 z m 20,0 h 12.13086 v 12.13086 h -12.13086 z m 20,0 h 12.13086 v 12.13086 h -12.13086 z m 20,0 h 12.13086 v 12.13086 h -12.13086 z m 20,0 h 12.13086 v 12.13086 H 452.14844 Z M 319.10156,499.0918 h 160.60547 v 96.75195 H 319.10156 Z m 13.04688,100.17968 h 12.13086 v 12.13086 h -12.13086 z m 20,0 h 12.13086 v 12.13086 h -12.13086 z m 20,0 h 12.13086 v 12.13086 h -12.13086 z m 20,0 h 12.13086 v 12.13086 h -12.13086 z m 20,0 h 12.13086 v 12.13086 h -12.13086 z m 20,0 h 12.13086 v 12.13086 h -12.13086 z m 20,0 h 12.13086 v 12.13086 h -12.13086 z"
       transform="scale(0.26458333)" />
  </g>
</svg>
